<svg xmlns="http://www.w3.org/2000/svg" width="200" height="80" viewBox="0 0 200 80">
    <g fill="none" fill-rule="evenodd">
        <g fill="#FFF" fill-rule="nonzero">
            <g>
                <g>
                    <path d="M57.167 22.46H45.51c-1.513 0-2.9-.242-4.16-.727-1.262-.484-2.35-1.165-3.265-2.04-.915-.877-1.625-1.939-2.13-3.188-.504-1.249-.756-2.646-.756-4.193 0-1.491.262-2.857.785-4.096.523-1.24 1.242-2.306 2.157-3.201s2.003-1.594 3.264-2.097c1.261-.503 2.639-.755 4.133-.755 1.476 0 2.84.252 4.09.755 1.252.503 2.336 1.202 3.251 2.097s1.63 1.962 2.143 3.201c.514 1.24.77 2.605.77 4.096 0 1.77-.373 3.317-1.12 4.64-.747 1.324-1.737 2.368-2.97 3.132v.056h5.464v2.32zM38.198 12.312c0 1.08.173 2.092.518 3.033.346.941.836 1.757 1.471 2.446.635.69 1.401 1.235 2.298 1.636.897.4 1.905.6 3.026.6 1.083 0 2.078-.2 2.984-.6.906-.401 1.676-.946 2.312-1.636.635-.69 1.13-1.505 1.485-2.446.354-.941.532-1.952.532-3.033 0-1.063-.168-2.06-.504-2.992-.337-.932-.822-1.747-1.457-2.446-.636-.699-1.401-1.253-2.298-1.663-.897-.41-1.905-.615-3.026-.615-1.12 0-2.13.205-3.026.615-.897.41-1.667.964-2.312 1.663-.644.699-1.14 1.514-1.485 2.446-.345.932-.518 1.93-.518 2.992zm28.784 10.651c-1.308 0-2.447-.219-3.418-.657-.972-.438-1.775-1.02-2.41-1.747-.635-.727-1.107-1.56-1.415-2.502-.308-.941-.462-1.915-.462-2.922V2.667h2.774v12.3c0 .672.084 1.338.252 2 .168.661.443 1.253.826 1.775.383.522.888.941 1.513 1.258.626.317 1.406.475 2.34.475.915 0 1.69-.158 2.326-.475.635-.317 1.144-.736 1.527-1.258.382-.522.658-1.114.826-1.775.168-.662.252-1.328.252-2v-12.3h2.774v12.468c0 1.007-.154 1.98-.462 2.922-.308.941-.78 1.775-1.415 2.502-.635.727-1.438 1.31-2.41 1.747-.971.438-2.11.657-3.418.657zm12.337-.503h-3.082l8.601-19.793h2.522l8.518 19.793H92.74l-2.018-4.864h-9.414l-1.99 4.864zm2.97-7.297h7.425l-3.699-9.281-3.726 9.281zM97.932 2.667h6.808c1.27 0 2.54.186 3.81.559 1.271.372 2.42.96 3.447 1.761 1.028.801 1.859 1.826 2.494 3.075.635 1.249.953 2.75.953 4.501 0 1.696-.318 3.164-.953 4.404-.635 1.239-1.466 2.264-2.494 3.075-1.027.81-2.176 1.416-3.446 1.817-1.27.4-2.54.601-3.81.601h-6.81V2.667zm2.774 17.36h3.474c1.195 0 2.302-.167 3.32-.502 1.018-.336 1.896-.82 2.634-1.454s1.312-1.417 1.723-2.349c.411-.931.617-1.984.617-3.159 0-1.23-.206-2.31-.617-3.243-.41-.932-.985-1.71-1.723-2.334-.738-.624-1.616-1.1-2.634-1.426-1.018-.326-2.125-.49-3.32-.49h-3.474v14.958zM121.532 20H131.9v2.46h-13.14V2.667h12.72v2.432h-9.947v5.927h9.358v2.376h-9.358V20zm27.551-1.51h.056V2.667h2.774V22.46h-3.502L137.93 6.3h-.055v16.16h-2.774V2.667h3.614l10.367 15.823zm24.161.895c-.785 1.062-1.803 1.924-3.054 2.586-1.252.661-2.755.992-4.511.992-1.513 0-2.91-.256-4.189-.769-1.28-.512-2.382-1.23-3.306-2.152-.925-.923-1.649-2.022-2.172-3.3-.523-1.276-.784-2.678-.784-4.207 0-1.547.266-2.958.798-4.235.533-1.277 1.27-2.367 2.214-3.271.943-.904 2.06-1.608 3.348-2.11 1.289-.504 2.69-.756 4.203-.756.672 0 1.354.066 2.045.196.691.13 1.355.326 1.99.587.635.261 1.214.583 1.737.965.523.382.971.824 1.345 1.328l-2.186 1.677c-.485-.671-1.172-1.225-2.06-1.663-.886-.438-1.844-.657-2.871-.657-1.158 0-2.2.21-3.124.629-.925.419-1.714.992-2.368 1.719-.654.727-1.158 1.57-1.513 2.53-.355.96-.532 1.98-.532 3.061 0 1.119.173 2.162.518 3.132.346.969.84 1.812 1.485 2.53.645.717 1.43 1.281 2.354 1.691.924.41 1.956.615 3.096.615 1.12 0 2.139-.224 3.054-.67.915-.448 1.672-1.1 2.27-1.958l2.213 1.51zm9.731 3.075h-2.802v-8.555l-7.425-11.238h3.418l5.492 8.946 5.52-8.946h3.222l-7.425 11.238v8.555zM20.898 22.843l-3.465-3.465H5.985V6.148h13.23v11.448l3.465 3.465V2.683H2.52v20.16h18.378zM0 .163h25.2v25.2H0V.163zm8.505 16.695h8.19v-8.19h-8.19v8.19z" transform="translate(-624 -3618) translate(624 3618) translate(4.8 27.037)"/>
                </g>
            </g>
        </g>
    </g>
</svg>
